<svg width="410" height="496" viewBox="0 0 410 496" fill="none" xmlns="http://www.w3.org/2000/svg">
<path d="M198.325 1.08143C195.032 2.00326 189.046 4.92241 184.855 7.53427C180.814 9.9925 168.991 16.9063 158.963 22.7446C146.391 29.812 139.806 34.7284 138.31 37.4939C136.663 40.7204 136.214 49.7851 136.214 78.2083C136.214 110.012 136.514 115.389 138.908 119.998C141.004 124.3 145.493 127.68 162.406 137.359C195.781 156.564 201.019 159.023 207.903 157.793C211.046 157.333 220.026 153.031 227.659 148.268C235.442 143.505 247.115 136.745 253.85 133.058C274.205 121.688 273.007 124.607 273.606 81.5884C274.055 41.9495 273.307 37.033 265.973 32.1166C255.048 24.8955 212.543 1.23507 208.801 0.313239C206.257 -0.301318 201.468 0.00595065 198.325 1.08143ZM220.625 56.2379C229.904 60.2325 231.999 64.8417 231.999 82.0493C231.999 99.8715 230.203 104.02 219.577 109.243C214.04 112.009 210.298 112.47 194.883 112.47H176.624V98.6424C176.624 84.9685 176.624 84.8148 180.365 84.8148C183.957 84.8148 184.107 85.2757 184.107 94.0332V103.252H198.325C220.475 103.252 224.516 100.025 224.516 82.5102C224.516 64.8417 220.475 61.7689 197.577 61.7689H182.61V66.3781C182.61 69.9118 182.012 70.9873 179.617 70.9873C176.923 70.9873 176.624 69.9118 176.624 62.5371V54.087H196.08C209.25 54.087 217.183 54.7015 220.625 56.2379ZM209.25 72.831C211.795 76.211 212.842 87.4267 211.046 90.9604C209.699 93.4186 208.203 94.0332 204.611 93.7259L199.822 93.265L199.373 82.9711C199.073 74.2137 199.373 72.6773 201.617 72.0628C206.407 70.8336 207.604 70.9873 209.25 72.831Z" fill="#C1FFAB" fill-opacity="0.670588"/>
<path d="M72.3078 72.6772C63.1783 75.4427 62.1307 79.4373 62.5797 105.71C62.879 119.844 62.43 129.37 61.6817 129.985C60.7837 130.446 52.4025 126.297 42.824 120.766C23.8167 109.551 16.6328 107.707 9.2993 111.548C-0.428863 116.772 0.0201293 110.319 0.0201293 247.98C0.0201293 388.713 -1.02752 376.883 11.9932 383.643C20.6738 388.252 27.1093 388.559 30.4019 384.719C32.6469 382.107 32.9462 374.886 32.9462 312.508C32.9462 257.966 33.3952 243.063 34.8918 243.063C37.5858 243.063 57.4911 254.74 60.0354 257.812C61.8314 259.963 62.2804 274.098 62.879 338.627L63.6273 416.829L67.3689 419.902C69.4642 421.592 77.2468 426.047 84.5803 430.042C99.5467 437.724 125.289 452.473 163.902 474.905C196.529 493.956 199.971 495.646 208.053 495.646C215.536 495.646 223.468 491.651 258.939 470.449C281.089 457.083 286.477 453.856 318.056 435.266C331.227 427.584 343.499 419.441 345.445 417.29C348.438 413.91 348.737 411.759 348.737 398.546C348.737 390.403 348.288 382.26 347.839 380.57C347.39 378.88 343.349 374.886 338.859 371.659C334.519 368.433 330.778 364.899 330.778 363.824C330.778 361.212 335.417 357.063 347.989 348.46C353.826 344.465 361.758 338.934 365.799 336.015C369.69 333.096 373.581 330.637 374.33 330.637C375.078 330.637 375.677 336.629 375.677 344.158C375.677 359.675 377.473 363.824 385.255 365.36C391.242 366.435 401.718 362.134 406.358 356.756C409.201 353.53 409.351 351.225 409.351 315.734C409.351 279.937 409.201 278.093 406.358 275.942C402.317 272.869 397.378 271.794 393.337 272.869C391.391 273.33 379.418 280.09 366.697 287.772C313.566 320.19 262.082 351.379 253.701 356.449C248.762 359.522 243.074 362.902 240.979 364.284C222.72 375.807 212.842 381.646 209.999 382.26C207.604 382.875 202.665 380.878 193.835 375.807C186.801 371.813 181.114 368.125 181.114 367.511C181.114 365.053 190.842 357.985 207.305 348.306C230.503 334.632 329.281 273.945 339.009 267.338C344.247 263.651 346.792 260.885 347.39 257.659C347.989 255.047 348.438 215.408 348.588 169.316C348.588 105.556 348.288 84.661 346.792 81.8955C342.152 72.5235 329.58 68.6825 318.056 73.2917C307.131 77.44 306.831 78.5155 306.831 110.626C306.831 138.281 306.831 138.742 303.239 142.122C300.096 145.195 285.13 154.26 226.312 188.828C215.836 194.974 205.658 200.044 203.713 200.044C201.767 200.044 188.896 193.591 175.277 185.602C161.657 177.613 141.602 166.09 130.677 159.791C119.901 153.645 109.125 147.192 106.731 145.349L102.54 142.122L101.792 112.316C101.043 80.5128 100.295 77.44 93.1111 74.0599C87.7232 71.6017 77.8454 70.8335 72.3078 72.6772ZM62.5797 182.529C77.9951 191.594 94.9071 201.427 100.295 204.653C123.343 218.327 124.84 218.788 136.065 213.718L143.249 210.645L154.623 216.944C167.494 224.012 169.589 226.624 167.793 233.23C166.895 236.918 163.453 239.683 149.534 247.98C140.106 253.664 131.425 258.427 130.078 258.427C127.534 258.427 39.3818 207.112 34.4428 202.81C31.7489 200.351 31.4496 198.2 31.4496 183.144C31.4496 172.235 32.0482 166.243 33.0959 166.243C33.9939 166.243 47.1643 173.618 62.5797 182.529ZM280.939 213.257C286.477 216.33 293.96 220.632 297.403 222.783C303.539 226.777 303.838 227.238 303.838 234.152C303.838 240.912 303.389 241.68 298.151 245.06C290.069 250.438 212.693 297.298 175.875 319.268C158.664 329.562 142.5 339.702 139.956 341.853C135.616 345.694 135.616 345.694 135.017 365.667L134.418 385.794L121.398 379.034C101.792 368.74 103.288 371.198 103.288 346.616V325.26L108.227 321.88C110.771 320.036 122.745 312.815 134.718 305.594C199.971 266.724 228.707 248.901 233.197 244.599C237.387 240.451 237.986 238.915 237.986 231.54C237.986 223.397 238.136 223.09 244.272 219.095C252.653 213.718 265.075 207.726 268.218 207.726C269.565 207.726 275.252 210.184 280.939 213.257ZM306.831 388.559C306.831 396.088 306.233 402.848 305.634 403.923C304.437 405.767 281.837 419.902 262.68 430.503C256.095 434.19 244.87 440.797 237.537 445.406C230.353 449.862 220.475 455.546 215.686 458.158L206.706 462.921L179.318 447.25C137.861 423.589 140.704 426.047 140.704 415.293C140.704 399.775 147.589 396.395 161.208 404.845C185.155 419.595 204.012 429.274 208.502 429.274C211.346 429.428 216.883 427.277 222.271 424.05C227.21 421.131 245.02 410.376 261.932 400.236C293.511 381.185 303.838 375.347 305.784 375.193C306.382 375.193 306.831 381.185 306.831 388.559Z" fill="#88D66C" fill-opacity="0.670588"/>
<path d="M381.963 110.933C380.167 111.702 377.922 114.314 377.024 116.464C376.126 119.076 375.677 139.818 375.976 172.543C376.425 220.017 376.724 224.626 379.119 227.392C384.507 233.384 393.936 232.462 403.814 225.087L408.603 221.4V170.238C408.603 113.084 409.202 116.772 397.677 111.702C391.541 109.09 387.051 108.936 381.963 110.933Z" fill="#88D66C" fill-opacity="0.670588"/>
</svg>
